/* XPM */
static char *_20e4e2363294a39dc570077793d77e7[] = {
/* columns rows colors chars-per-pixel */
"64 64 153 2 ",
"   c #A5A7A9",
".  c #A6A7A9",
"X  c #A5A8A8",
"o  c #A5A8A9",
"O  c #A5A9A9",
"+  c #A6A8A8",
"@  c #A7A8A8",
"#  c #A6A8A9",
"$  c #A6A9A9",
"%  c #A7A9A9",
"&  c #A5A8AA",
"*  c #A6A8AA",
"=  c #A7A8AA",
"-  c #A7A9AA",
";  c #A8AAAB",
":  c #A9ABAC",
">  c #AAACAD",
",  c #ABACAD",
"<  c #ABADAE",
"1  c #ACADAE",
"2  c #ACAEAF",
"3  c #ADAEAF",
"4  c #ADAFB0",
"5  c #AEB0B0",
"6  c #AEB0B1",
"7  c #AFB1B1",
"8  c #AFB1B2",
"9  c #B0B2B2",
"0  c #B0B2B3",
"q  c #B1B3B3",
"w  c #B1B3B4",
"e  c #B2B3B4",
"r  c #B2B4B4",
"t  c #B2B4B5",
"y  c #B3B4B5",
"u  c #B3B5B5",
"i  c #B3B5B6",
"p  c #B4B6B6",
"a  c #B6B7B8",
"s  c #B6B8B9",
"d  c #B7B8B9",
"f  c #B7B9BA",
"g  c #B8B9BA",
"h  c #B8BABB",
"j  c #B9BABB",
"k  c #B9BBBC",
"l  c #BABBBC",
"z  c #BBBCBD",
"x  c #BCBDBE",
"c  c #BDBFBF",
"v  c #BEBFC0",
"b  c #BEC0C0",
"n  c #BEC0C1",
"m  c #BFC1C2",
"M  c #C0C1C2",
"N  c #C1C2C3",
"B  c #C1C3C3",
"V  c #C2C3C4",
"C  c #C4C5C6",
"Z  c #C5C6C7",
"A  c #C5C7C7",
"S  c #C6C7C8",
"D  c #C7C8C9",
"F  c #C8C9CA",
"G  c #C9CACA",
"H  c #C9CACB",
"J  c #CACBCB",
"K  c #CACBCC",
"L  c #CCCDCD",
"P  c #CCCDCE",
"I  c #CCCECE",
"U  c #CDCECE",
"Y  c #CECFCF",
"T  c #CECFD0",
"R  c #CED0D0",
"E  c #CFD0D0",
"W  c #D0D1D1",
"Q  c #D0D1D2",
"!  c #D1D2D2",
"~  c #D2D3D3",
"^  c #D2D3D4",
"/  c #D3D4D4",
"(  c #D4D5D6",
")  c #D6D7D7",
"_  c #D6D7D8",
"`  c #D7D8D8",
"'  c #D7D8D9",
"]  c #D8D8D9",
"[  c #D9DADA",
"{  c #D9DADB",
"}  c #DADADB",
"|  c #DADBDB",
" . c #DBDCDC",
".. c #DCDDDD",
"X. c #DCDDDE",
"o. c #DDDEDE",
"O. c #DDDEDF",
"+. c #DEDFDF",
"@. c #DFDFE0",
"#. c #DFE0E0",
"$. c #E0E0E1",
"%. c #E0E1E1",
"&. c #E1E1E2",
"*. c #E1E2E2",
"=. c #E2E3E3",
"-. c #E3E3E4",
";. c #E3E4E4",
":. c #E4E4E5",
">. c #E4E5E5",
",. c #E5E5E6",
"<. c #E6E6E6",
"1. c #E6E6E7",
"2. c #E6E7E7",
"3. c #E7E7E7",
"4. c #E7E7E8",
"5. c #E7E8E8",
"6. c gray91",
"7. c #E8E9E9",
"8. c #E9E9E9",
"9. c #E9EAEA",
"0. c #EAEAEA",
"q. c #EAEBEB",
"w. c gray92",
"e. c #EBECEC",
"r. c #ECECEC",
"t. c #ECEDED",
"y. c gray93",
"u. c #EDEEEE",
"i. c #EEEEEE",
"p. c #EFEFEF",
"a. c #EFF0F0",
"s. c gray94",
"d. c #F0F1F1",
"f. c #F1F1F1",
"g. c #F1F2F2",
"h. c #F2F3F3",
"j. c #F3F3F4",
"k. c #F4F4F4",
"l. c gray96",
"z. c #F5F5F6",
"x. c #F6F6F7",
"c. c gray97",
"v. c #F7F7F8",
"b. c #F8F8F8",
"n. c #F8F9F9",
"m. c #F9F9F9",
"M. c gray98",
"N. c #FBFBFB",
"B. c gray99",
"V. c #FDFDFD",
"C. c #FEFEFE",
"Z. c gray100",
"A. c None",
/* pixels */
"A.A.A.A.A.A.A.A.A.A.A.A.A.A.A.A.A.A.A.A.A.A.A.A.A.A.# # # # # # # # # # # # A.A.A.A.A.A.A.A.A.A.A.A.A.A.A.A.A.A.A.A.A.A.A.A.A.A.",
"A.A.A.A.A.A.A.A.A.A.A.A.A.A.A.A.A.A.A.A.A.A.# # # # # # # # # # # # # # # # # # @ - A.A.A.A.A.A.A.A.A.A.A.A.A.A.A.A.A.A.A.A.A.A.",
"A.A.A.A.A.A.A.A.A.A.A.A.A.A.A.A.A.A.A.# # # # # # # # # # 3 q r 3 - # # # # # # # # # # # A.A.A.A.A.A.A.A.A.A.A.A.A.A.A.A.A.A.A.",
"A.A.A.A.A.A.A.A.A.A.A.A.A.A.A.A.A.# # # # # # > V ] :.c.Z.Z.Z.Z.Z.Z.b.e.X.D q # # # # # # # # A.A.A.A.A.A.A.A.A.A.A.A.A.A.A.A.A.",
"A.A.A.A.A.A.A.A.A.A.A.A.A.A.A.A.# # # # : D :.Z.Z.Z.Z.Z.Z.Z.Z.Z.Z.Z.Z.Z.Z.Z.Z.a.! q     # # # # # A.A.A.A.A.A.A.A.A.A.A.A.A.A.A.",
"A.A.A.A.A.A.A.A.A.A.A.A.A.A.# # # # 6 ] b.Z.Z.Z.Z.Z.j.;.( I Z b V Z I _ =.c.Z.Z.Z.Z.=.p # # # # # # A.A.A.A.A.A.A.A.A.A.A.A.A.A.",
"A.A.A.A.A.A.A.A.A.A.A.A.A.# # # : ( b.Z.Z.Z.Z.=.H 6 # #   # # # # # # # # # 6 H :.Z.Z.Z.X.6 # # # # # A.A.A.A.A.A.A.A.A.A.A.A.A.",
"A.A.A.A.A.A.A.A.A.A.A.# # # # v j.Z.Z.Z.c.R 6 # # # # # # # # # # # # # # # # #   4 R c.Z.b.Z # # # # # # A.A.A.A.A.A.A.A.A.A.A.",
"A.A.A.A.A.A.A.A.A.A.# # # # ] Z.Z.Z.v.I - # # # # # # # # # # # # # # # # # # # # # # - I b.Z.X.: # # # # # A.A.A.A.A.A.A.A.A.A.",
"A.A.A.A.A.A.A.A.A.# # # 4 4.Z.Z.Z.X.3 # # # # # # # # # # # # # # # # # # # # # # # # # # > X.Z.i.6 # # # #   A.A.A.A.A.A.A.A.A.",
"A.A.A.A.A.A.A.A.# # # 4 a.Z.Z.b.m # # # # # # # # # # # # # # # # # # # # # # # # # # # # # # N v.s.6 # # # # - A.A.A.A.A.A.A.A.",
"A.A.A.A.A.A.A.# # # 4 s.Z.Z.i.q # # # # # # # # # # # # # # # # # # # # # # # # # # # # # # # # w s.s.4 # # # # # A.A.A.A.A.A.A.",
"A.A.A.A.A.A.A.# # : i.Z.Z.7.> # # # # # # # # # # # # # # # # # # # # # # # # # # # # # # # # #   > 7.6.# # # # # A.A.A.A.A.A.A.",
"A.A.A.A.A.A.# # # X.Z.Z.5.: # # # # # # # # # # # # # # # # # # # # # # # # # # # # # # # # # # # # > 7.( # # # # # A.A.A.A.A.A.",
"A.A.A.A.A.# # # H Z.Z.i.> # # # # # # # # # # # # # # # # # # # # # # # # # # # # # # # # # # # # # # 3 p.g # # # # # A.A.A.A.A.",
"A.A.A.A.A.# # q b.Z.v.q # # # # # # # # # # # # # # # # # # # # # # # # # # # # # # # # # # # # # #     r 7.# # # # # A.A.A.A.A.",
"A.A.A.A.# # # :.Z.Z.N # # # # # # # # # # # # # # # # # # # # # # # # # # # # # # # # # # # # # # # # # # B A # # # # # A.A.A.A.",
"A.A.A.# # # z Z.Z.X.# # # # # # # # # # # # # # # # # # # # # # # # # # # # # # # # # # # # # # # # # # # # ~ # # # # # - A.A.A.",
"A.A.A.# # # 7.Z.b.3 # # # # # # # # # # # # # # # # # # # # # # # # # # # # # # # # # # # # # # # # # # # # 6 6 # # # # # A.A.A.",
"A.A.A.# # k Z.Z.I # # # # # # # # # # # # # # # # # # # # # # # # # # # # # # # # # # # # # # # # # # # # # # # # # # # # A.A.A.",
"A.A.# # # X.Z.c.: # # # # # # # # # # # # # # # # # # # # # # # # # # # # # # # # # # # # # # # # # # # # # # # # # # # # # A.A.",
"A.A.# # > b.Z.^ # # # # # # # # # # # # # # # # # # # # # # # # # # # # # # # # # # # # # # # # # # # # # # # # # # # # # # A.A.",
"A.# # # N Z.Z.4 # # # # # # # # > 4 # # # # # # - # # : # # # # # # # # # # # # # # # # # # # # # # # # # # # # # # # # # # # A.",
"A.# # # ] Z.5.  # # # # # # # k.Z.Z.b.T # # # d i.b.b.b.b.b.b.b.b.b.b.v.k # # # > { t.i.t.i.i.i.i.i.i.i.N # # # # # # # # # # A.",
"A.# # # s.Z.I # # # # # # # # b.Z.Z.Z.Z.# # # ;.Z.Z.Z.Z.Z.Z.Z.Z.Z.Z.Z.Z.i.# # # =.Z.Z.Z.Z.Z.Z.Z.Z.Z.Z.Z.X.# # # # # # # # # # A.",
"A.# # > Z.Z.r # # # # # # # # b.Z.Z.Z.Z.6 # # 7.Z.Z.Z.Z.Z.Z.Z.Z.Z.Z.Z.Z.Z.# # # N.Z.Z.Z.Z.Z.Z.Z.Z.Z.Z.Z.=.# # # # # # # # # # A.",
"# # # d Z.b.# # # # # # # # - b.Z.Z.Z.Z.q # # ) Z.Z.Z.Z.Z.Z.Z.Z.Z.Z.Z.Z.Z.- # # Z.Z.Z.Z.Z.Z.Z.Z.Z.Z.Z.Z.N # # # # # # # # # # A.",
"# # # B Z.:.# # # # # # # - - b.Z.Z.Z.Z.6 # # > g g g g g d ] Z.Z.Z.Z.Z.' # # - Z.Z.Z.Z.c.w r r q q r 3 # # # # # # # # # # # # ",
"# # # H Z.] # # # # # # # # # b.Z.Z.Z.Z.6   # # # # # # # x Z.Z.Z.Z.Z.c.> # # # Z.Z.Z.Z.c.# # # # # # # # # # # # # # # # # # # ",
"# # # I Z.! # # # # # # # # - b.Z.Z.Z.Z.6 # # # # # # # r b.Z.Z.Z.Z.b.k # # # - Z.Z.Z.Z.c.g g g g g g 3 # # # # # # # # # # # # ",
"# # # I Z.H # # # # # # # # # b.Z.Z.Z.Z.6 # # # # # # 3 s.Z.Z.Z.Z.Z.S # # # # - Z.Z.Z.Z.Z.Z.Z.Z.Z.Z.Z.=.# # # # # # # # # # # # ",
"# # # D Z.S # # # # # # # # # b.Z.Z.Z.Z.q # # # # # # :.Z.Z.Z.Z.Z.^ # # # # # - Z.Z.Z.Z.Z.Z.Z.Z.Z.Z.Z.s.# # # # # # # # # # # # ",
"# # # V Z.Z # # # # # # # # - N.Z.Z.Z.Z.q # # # # # ] Z.Z.Z.Z.Z.=.# # # # # # # Z.Z.Z.Z.Z.Z.Z.Z.Z.Z.Z.7.# # # # # # # # # # # # ",
"# # # g Z.K # # # # # # # # # b.Z.Z.Z.Z.6 # # # # I Z.Z.Z.Z.Z.i.> # # # # # # - Z.Z.Z.Z.Z.:.5.5.5.5.:.g # # # # # # # # # # # # ",
"# # # > Z.! # # # # # # # # - b.Z.Z.Z.Z.q @ # # m Z.Z.Z.Z.Z.c.q # # # # # # # - Z.Z.Z.Z.c.    # # # # # # # # # # # # # # # # + ",
"# # # # c.] # # # # # # # # - b.Z.Z.Z.Z.6   # 6 b.Z.Z.Z.Z.B.g @ # # # # # # # - Z.Z.Z.Z.c.@   # # # # # # # # # # # # # # # # # ",
"# # # # X.7.# # # # # # # # # b.Z.Z.Z.Z.6 # # X.Z.Z.Z.Z.Z.7.E ! R ! ! R H # # # Z.Z.Z.Z.b.x m x b x v v 6 # # # # # # # # # # # ",
"A.# # # Z c.# # # # # # # # # b.Z.Z.Z.Z.6 # - Z.Z.Z.Z.Z.Z.Z.Z.Z.Z.Z.Z.Z.Z.3 # - Z.Z.Z.Z.Z.Z.Z.Z.Z.Z.Z.Z.X.# # # # # # # # # # A.",
"A.# # # 3 Z.a # # # # # # #   c.Z.Z.Z.Z.6 # - Z.Z.Z.Z.Z.Z.Z.Z.Z.Z.Z.Z.Z.Z.g # - Z.Z.Z.Z.Z.Z.Z.Z.Z.Z.Z.Z.i.# # # # # # # # # # A.",
"A.# # # @ =.! # # # # # # # # 3.Z.Z.Z.Z.6 # # :.Z.Z.Z.Z.Z.Z.Z.Z.Z.Z.Z.Z.Z.q # # X.Z.Z.Z.Z.Z.Z.Z.Z.Z.Z.Z.:.# # # # # # # # # # A.",
"A.# # # # v 7.# # # # # # # # p +.e.7.=.: # # p =.=.=.=.=.#.=.=.=.=.=.X.N # # # - / :.6.6.6.5.5.5.5.5.=.p # # # # # # # # # # A.",
"A.# # # # # 7.p # # # # # # # # # # # # # # #   # #     #   # #     # # # # # # - - # - # # # # # # # # # # # # # # # # # # # A.",
"A.A.# # # # x ' # # # # # # # # # # # # # # # # # # # # # # # # # # # # # # # # # # # # # # # # # # # # # # # # # # # # # # A.A.",
"A.A.# # # # #  .3 # # # # # # # # # # # # # # # # # # # # # # # # # # # # # # # # # # # # # # # # # # # # # # # # # # # # # A.A.",
"A.A.A.# # # # 3 L   # # # # # # # # # # # # # # # # # # # # # # # # # # # # # # # # # # # # # # # # # # # # # # # # # # # A.A.A.",
"A.A.A.# # # # # p # # # # # # # # # # # # # # # # # # # # # # # # # # # # # # # # # # # # # # # # # # # # # # # # # # # # A.A.A.",
"A.A.A.A.# # # # # # # # # # # # # # # # # # # # # # # # # # # # # # # # # # # # # # # # # # # # # # # # # # # # # # # # A.A.A.A.",
"A.A.A.A.# # # # # # # # # # # # # # # # # # # # # # # # # # # # # # # # # # # # # # # # # # # # # # # # # # # # # # # # A.A.A.A.",
"A.A.A.A.A.# # # # # # # # # # # # # # # # # # # # # # # # # # # # # # # # # # # # # # # # # # # # # # # # # # # # # # A.A.A.A.A.",
"A.A.A.A.A.# # # # # # # # # # # # # # # # # # # # # # # # # # # # # # # # # # # # # # # # # # # # # # # # # # # # # # A.A.A.A.A.",
"A.A.A.A.A.A.# # # # # # # # # # # # # # # # # # # # # # # # # # # # # # # # # # # # # # # # # # # # # # # # # # # # A.A.A.A.A.A.",
"A.A.A.A.A.A.A.# # # # # # # # # # # # # # # # # # # # # # # # # # # # # # # # # # # # # # # # # # # # # # # # # # A.A.A.A.A.A.A.",
"A.A.A.A.A.A.A.# # # # # # # # # # # # # # # # # # # # # # # # # # # # # # # # # # # # # # # # # # # # # # # # # A.A.A.A.A.A.A.A.",
"A.A.A.A.A.A.A.A.# # # # # # # # # # # # # # # # # # # # # # # # # # # # # # # # # # # # # # # # # # # # # # # # A.A.A.A.A.A.A.A.",
"A.A.A.A.A.A.A.A.A.  # # # # # # # # # # # # # # # # # # # # # # # # # # # # # # # # # # # # # # # # # # # # # A.A.A.A.A.A.A.A.A.",
"A.A.A.A.A.A.A.A.A.A.  # # # # # # # # # # # # # # # # # # # # # # # # # # # # # # # # # # # # # # # # # # # A.A.A.A.A.A.A.A.A.A.",
"A.A.A.A.A.A.A.A.A.A.A.A.# # # # # # # # # # # # # # # # # # # # # # # # # # # # # # # # # # # # # # # # A.A.A.A.A.A.A.A.A.A.A.A.",
"A.A.A.A.A.A.A.A.A.A.A.A.A.# # # # # # # # # # # # # # # # # # # # # # # # # # # # # # # # # # # # # # A.A.A.A.A.A.A.A.A.A.A.A.A.",
"A.A.A.A.A.A.A.A.A.A.A.A.A.A.# # # # # # # # # # # # # # # # # # # # # # # # # # # # # # # # # # # # A.A.A.A.A.A.A.A.A.A.A.A.A.A.",
"A.A.A.A.A.A.A.A.A.A.A.A.A.A.A.A.# # # # # # # # # # # # # # # # # # # # # # # # # # # # # # # # A.A.A.A.A.A.A.A.A.A.A.A.A.A.A.A.",
"A.A.A.A.A.A.A.A.A.A.A.A.A.A.A.A.A.A.# # # # # # # # # # # # # # # # # # # # # # # # # # # # A.A.A.A.A.A.A.A.A.A.A.A.A.A.A.A.A.A.",
"A.A.A.A.A.A.A.A.A.A.A.A.A.A.A.A.A.A.A.A.# # # # # # # # # # # # # # # # # # # # # # # # A.A.A.A.A.A.A.A.A.A.A.A.A.A.A.A.A.A.A.A.",
"A.A.A.A.A.A.A.A.A.A.A.A.A.A.A.A.A.A.A.A.A.A.A.# # # # # # # # # # # # # # # # # # A.A.A.A.A.A.A.A.A.A.A.A.A.A.A.A.A.A.A.A.A.A.A.",
"A.A.A.A.A.A.A.A.A.A.A.A.A.A.A.A.A.A.A.A.A.A.A.A.A.A.A.# # # # # # # # # # A.A.A.A.A.A.A.A.A.A.A.A.A.A.A.A.A.A.A.A.A.A.A.A.A.A.A."
};
