/* XPM */
static char *_0b83386c2de49afafd8376a9028044e[] = {
/* columns rows colors chars-per-pixel */
"32 32 116 2 ",
"   c #A5A7A9",
".  c #A6A7A9",
"X  c #A5A8A8",
"o  c #A5A8A9",
"O  c #A5A9A9",
"+  c #A6A8A8",
"@  c #A7A8A8",
"#  c #A6A8A9",
"$  c #A7A8A9",
"%  c #A6A9A9",
"&  c #A7A9A9",
"*  c #A6A8AA",
"=  c #A7A9AA",
"-  c #A8AAAB",
";  c #A9ABAC",
":  c #AAACAD",
">  c #ABACAD",
",  c #ABADAE",
"<  c #ACAEAF",
"1  c #ADAEAF",
"2  c #ADAFB0",
"3  c #AEB0B0",
"4  c #AFB1B1",
"5  c #AFB1B2",
"6  c #B0B2B2",
"7  c #B0B2B3",
"8  c #B1B3B3",
"9  c #B2B4B4",
"0  c #B2B4B5",
"q  c #B3B5B6",
"w  c #B4B5B6",
"e  c #B4B6B6",
"r  c #B4B6B7",
"t  c #B5B6B7",
"y  c #B5B7B8",
"u  c #B6B7B8",
"i  c #B6B8B9",
"p  c #B7B9BA",
"a  c #B8BABB",
"s  c #B9BABB",
"d  c #BABBBC",
"f  c #BBBCBD",
"g  c #BCBDBE",
"h  c #BCBEBF",
"j  c #C1C3C3",
"k  c #C2C4C4",
"l  c #C3C4C5",
"z  c #C4C5C6",
"x  c #C5C6C7",
"c  c #C6C7C8",
"v  c #C6C8C8",
"b  c #C7C8C9",
"n  c #C8C9CA",
"m  c #C9CACA",
"M  c #C9CACB",
"N  c #CACBCB",
"B  c #CBCCCC",
"V  c #CBCCCD",
"C  c #CCCECE",
"Z  c #CDCECF",
"A  c #CECFCF",
"S  c #CED0D0",
"D  c #CFD0D0",
"F  c #D0D1D1",
"G  c #D1D2D2",
"H  c #D1D2D3",
"J  c #D2D3D3",
"K  c #D3D4D4",
"L  c #D4D5D6",
"P  c #D5D6D6",
"I  c #D5D6D7",
"U  c #D6D7D8",
"Y  c #D8D9DA",
"T  c #D9DADA",
"R  c #DADBDC",
"E  c #DBDCDD",
"W  c #DCDDDD",
"Q  c #DEDFDF",
"!  c #DFE0E0",
"~  c #E0E0E1",
"^  c #E1E2E2",
"/  c #E4E5E5",
"(  c #E5E5E6",
")  c #E6E6E7",
"_  c #E7E8E8",
"`  c gray91",
"'  c #E8E8E9",
"]  c #E8E9E9",
"[  c #EAEAEA",
"{  c #EAEBEB",
"}  c #EBECEC",
"|  c #ECEDED",
" . c gray93",
".. c #EDEEEE",
"X. c gray94",
"o. c #F1F1F1",
"O. c #F1F2F2",
"+. c #F2F2F3",
"@. c #F3F3F4",
"#. c #F4F4F5",
"$. c gray96",
"%. c #F5F5F6",
"&. c #F6F6F6",
"*. c gray97",
"=. c #F8F8F8",
"-. c #F8F9F9",
";. c #F9F9F9",
":. c #F9FAFA",
">. c gray98",
",. c #FAFBFB",
"<. c #FBFBFB",
"1. c gray99",
"2. c #FDFDFD",
"3. c #FEFEFE",
"4. c gray100",
"5. c None",
/* pixels */
"5.5.5.5.5.5.5.5.5.5.5.5.@ @ o @ o @ o o 5.5.5.5.5.5.5.5.5.5.5.5.",
"5.5.5.5.5.5.5.5.5.@ @ ; d N I Y I M r ;   ; . 5.5.5.5.5.5.5.5.5.",
"5.5.5.5.5.5.5.@ . 5 U :.3.-.' ) ! { -.2.! a @ @ @ 5.5.5.5.5.5.5.",
"5.5.5.5.5.5.@ ; R 2.%.S r @ @ o ; @   q H +.Q , @ @ 5.5.5.5.5.5.",
"5.5.5.5.5.@ i o.-.c ; o o @   ;   o @ o @ ; M | d o @ 5.5.5.5.5.",
"5.5.5.5.. g ,.' 5 o . @ @     o o @ o @       2 / h @ ; 5.5.5.5.",
"5.5.5.@ y ,.^ @ o @     o @ o @ @ o ;   o @ o   ; E 7 @ @ 5.5.5.",
"5.5.. ; X.' ; @ @ o @   ; o @ o o @     @ o ;     ; H ; @ ; 5.5.",
"5.5.@ H -.2 @     @ o @ o ;   @     o @ @ o @ @ o @ 5 h . o 5.5.",
"5.. , :.N o ;   @ o ; o @ @   o @   ; o o @ o @ @ o o : @ o @ 5.",
"5.@ N @.@   @ . @ o     @ @ @ @ o @ o @ ;   . @ o @ o @ . . @ 5.",
"5.@ ) K   ; @ a I c @ ; V G S G S S ; @ q M B B N N 2 . @ . ; 5.",
". ; ,.r . @ ; S 3.3.; c 3.3.3.3.3.3.Z @ :.3.3.3.3.3.l o @ o ;   ",
". 7 ,.@   ; @ S 3.3., q E W E *.3.3.n @ 3.3.' U U H 2 @ o @     ",
". a | @   o @ H 3.3., @ @ . l 3.3.' @ @ 3.3.G 2 2 ,     @ o . . ",
"@ y ( @ . @ o S 3.3., @ @ a ,.3.%.2   ; 3.3.3.3.3.o.  ; o @ o @ ",
"@ , '   o @ ; S 3.3., @ 3 *.3.,.i @ o ; 3.3.:.%.@.! o @ o ;     ",
"o o '   @ .   S 3.3.; @ ..3.3.j @ @ o @ 3.3.Z @ @ @ @ o @ o @   ",
". @ ( ; o @ @ H 3.3.; B 3.3.:.' ' ' v ; 3.3.| E E E i @ o @ o . ",
"@ o C r ; o o V 3.3., Z 3.3.3.3.3.3.Y   *.3.3.3.3.3.n @ ; o @ @ ",
"5.; 2 V     @ ; n c @ ; c l l c l l , o q n M M n c ; @   @ o 5.",
"5.@ . M ;   o @ @ @ @ . o @ @ o @ o o o @   ; o   ; o o     @ 5.",
"5.@ @ ; r ; o @   ; o @     @ o o @ o ; o @ o @   @ o @ . ; @ 5.",
"5.5.o   @ o @     o @ o   ; o @ @ o @ o @ o @ o @ o @ . . @ 5.5.",
"5.5.. @ @     . @ o @       @ o     o @ o @     o @       @ 5.5.",
"5.5.5.. @ ; o @ o @ o ; o @ o @ @   ; o @ o @   ; o ; @ @ 5.5.5.",
"5.5.5.5.    @ o     @ o @ o ;   o @ o @ o ; o ;   @ o @ 5.5.5.5.",
"5.5.5.5.5.; o @   ; o @ o @     @ o @       @ o     @ 5.5.5.5.5.",
"5.5.5.5.5.5.@ @ ;     o @ o ; o o     @     . @ ; @ 5.5.5.5.5.5.",
"5.5.5.5.5.5.5.5.@ @ . @ o     @ ;   @ o ; @ @ o   5.5.5.5.5.5.5.",
"5.5.5.5.5.5.5.5.5.@   ; @ o @ o     o @ @ @ @ 5.5.5.5.5.5.5.5.5.",
"5.5.5.5.5.5.5.5.5.5.5.5.@ . o @ o ; o o 5.5.5.5.5.5.5.5.5.5.5.5."
};
