/* XPM */
static char *ecba371fd8af4623918ada462c160c7f[] = {
/* columns rows colors chars-per-pixel */
"16 16 70 1 ",
"  c #A5A9A9",
". c #A6A8A8",
"X c #A7A8A8",
"o c #A6A8A9",
"O c #A6A9A9",
"+ c #A6A8AA",
"@ c #A7A9AA",
"# c #A8AAAA",
"$ c #A9AAAA",
"% c #A8AAAB",
"& c #A8AAAC",
"* c #A9ABAC",
"= c #AAACAD",
"- c #ABACAD",
"; c #ACADAE",
": c #ADAEAE",
"> c #AEB0B0",
", c #AEB0B1",
"< c #AFB1B2",
"1 c #B0B2B3",
"2 c #B2B3B4",
"3 c #B2B4B4",
"4 c #B2B4B5",
"5 c #B3B4B5",
"6 c #B3B5B5",
"7 c #B4B6B6",
"8 c #B5B7B8",
"9 c #B6B7B8",
"0 c #B6B8B9",
"q c #B7B8B9",
"w c #B7B9BA",
"e c #B8B9BA",
"r c #B8BABB",
"t c #B9BBBC",
"y c #BABBBC",
"u c #BABCBD",
"i c #BBBCBD",
"p c #BBBDBD",
"a c #BEC0C1",
"s c #C2C3C4",
"d c #C3C4C5",
"f c #C5C6C7",
"g c #C5C7C7",
"h c #C6C7C8",
"j c #C7C8C9",
"k c #C9CACA",
"l c #CCCDCE",
"z c #D2D3D3",
"x c #D3D4D5",
"c c #D4D5D5",
"v c #D4D5D6",
"b c #D7D8D8",
"n c #DADBDB",
"m c #DBDCDC",
"M c #DFDFE0",
"N c #E0E1E1",
"B c #E2E3E3",
"V c #E3E3E4",
"C c #E4E5E5",
"Z c #ECECEC",
"A c #EDEEEE",
"S c #EEEFEF",
"D c #EFEFEF",
"F c #F1F1F2",
"G c #F3F3F4",
"H c #F4F4F4",
"J c #F8F8F8",
"K c gray99",
"L c gray100",
"P c None",
/* pixels */
"PPPPPX4au=+PPPPP",
"PPP&lCvhjvb8XPPP",
"PP:Vf++XX++saXPP",
"P#N8++XXXX++84XP",
"Pgh+++XXXXXXX<XP",
"XmX=tXeer+488=XX",
"=cXuL4AHLrKFZ,XX",
"<jXuL#=DB+LMz+++",
"&jXuL=CA*XLnkXXX",
"XsXuLeLJGuKFA4++",
"Xr+&8#334X188X++",
"PX+XXX  ++++XXXP",
"PX+X+++ X+X++X+P",
"PPX++X  +X+XX+PP",
"PPPXXX++++X+XPPP",
"PPPPP +++++PPPPP"
};
